<mxfile host="app.diagrams.net" agent="Mozilla/5.0 (Windows NT 10.0; Win64; x64) AppleWebKit/537.36 (KHTML, like Gecko) Chrome/135.0.0.0 Safari/537.36" version="26.2.14">
  <diagram name="Page-1" id="9f46799a-70d6-7492-0946-bef42562c5a5">
    <mxGraphModel dx="1120" dy="1086" grid="1" gridSize="10" guides="1" tooltips="1" connect="1" arrows="1" fold="1" page="1" pageScale="1" pageWidth="1654" pageHeight="1169" background="#FFE599" math="0" shadow="0">
      <root>
        <mxCell id="0" />
        <mxCell id="1" parent="0" />
        <mxCell id="JoN7KsLRaaK6xxKw_jyw-68" value="" style="edgeStyle=orthogonalEdgeStyle;rounded=0;orthogonalLoop=1;jettySize=auto;html=1;entryX=0.5;entryY=1;entryDx=0;entryDy=0;" parent="1" source="78961159f06e98e8-17" target="JoN7KsLRaaK6xxKw_jyw-71" edge="1">
          <mxGeometry relative="1" as="geometry">
            <mxPoint x="-59.94736842105249" y="406" as="targetPoint" />
            <Array as="points">
              <mxPoint x="170" y="300" />
              <mxPoint x="170" y="300" />
            </Array>
          </mxGeometry>
        </mxCell>
        <mxCell id="78961159f06e98e8-17" value="Xuất phát: Hakata" style="swimlane;html=1;fontStyle=1;align=center;verticalAlign=top;childLayout=stackLayout;horizontal=1;startSize=26;horizontalStack=0;resizeParent=1;resizeLast=0;collapsible=1;marginBottom=0;swimlaneFillColor=#ffffff;rounded=0;shadow=0;comic=0;labelBackgroundColor=none;strokeWidth=1;fillColor=none;fontFamily=Verdana;fontSize=12" parent="1" vertex="1">
          <mxGeometry x="90" y="83" width="160" height="182" as="geometry" />
        </mxCell>
        <mxCell id="78961159f06e98e8-21" value="Xuất phát: Sáng 3/5/2025" style="text;html=1;strokeColor=none;fillColor=none;align=left;verticalAlign=top;spacingLeft=4;spacingRight=4;whiteSpace=wrap;overflow=hidden;rotatable=0;points=[[0,0.5],[1,0.5]];portConstraint=eastwest;" parent="78961159f06e98e8-17" vertex="1">
          <mxGeometry y="26" width="160" height="26" as="geometry" />
        </mxCell>
        <mxCell id="78961159f06e98e8-122" style="edgeStyle=elbowEdgeStyle;html=1;labelBackgroundColor=none;startFill=0;startSize=8;endArrow=open;endFill=0;endSize=16;fontFamily=Verdana;fontSize=12;elbow=vertical;dashed=1;" parent="1" source="78961159f06e98e8-30" target="78961159f06e98e8-43" edge="1">
          <mxGeometry relative="1" as="geometry" />
        </mxCell>
        <mxCell id="JoN7KsLRaaK6xxKw_jyw-14" value="" style="edgeStyle=orthogonalEdgeStyle;rounded=0;orthogonalLoop=1;jettySize=auto;html=1;" parent="1" source="78961159f06e98e8-30" target="JoN7KsLRaaK6xxKw_jyw-5" edge="1">
          <mxGeometry relative="1" as="geometry" />
        </mxCell>
        <mxCell id="JoN7KsLRaaK6xxKw_jyw-24" value="" style="edgeStyle=orthogonalEdgeStyle;rounded=0;orthogonalLoop=1;jettySize=auto;html=1;" parent="1" source="78961159f06e98e8-30" target="JoN7KsLRaaK6xxKw_jyw-15" edge="1">
          <mxGeometry relative="1" as="geometry" />
        </mxCell>
        <mxCell id="78961159f06e98e8-30" value="Hiroshima" style="swimlane;html=1;fontStyle=1;align=center;verticalAlign=top;childLayout=stackLayout;horizontal=1;startSize=26;horizontalStack=0;resizeParent=1;resizeLast=0;collapsible=1;marginBottom=0;swimlaneFillColor=#ffffff;rounded=0;shadow=0;comic=0;labelBackgroundColor=none;strokeWidth=1;fillColor=none;fontFamily=Verdana;fontSize=12" parent="1" vertex="1">
          <mxGeometry x="430" y="83" width="160" height="227" as="geometry" />
        </mxCell>
        <mxCell id="78961159f06e98e8-31" value="Giờ tới: Sáng ( trưa) 3/5&lt;div&gt;&lt;br&gt;&lt;/div&gt;" style="text;html=1;strokeColor=none;fillColor=none;align=left;verticalAlign=top;spacingLeft=4;spacingRight=4;whiteSpace=wrap;overflow=hidden;rotatable=0;points=[[0,0.5],[1,0.5]];portConstraint=eastwest;" parent="78961159f06e98e8-30" vertex="1">
          <mxGeometry y="26" width="160" height="26" as="geometry" />
        </mxCell>
        <mxCell id="78961159f06e98e8-32" value="Khách sạn:" style="text;html=1;strokeColor=none;fillColor=none;align=left;verticalAlign=top;spacingLeft=4;spacingRight=4;whiteSpace=wrap;overflow=hidden;rotatable=0;points=[[0,0.5],[1,0.5]];portConstraint=eastwest;" parent="78961159f06e98e8-30" vertex="1">
          <mxGeometry y="52" width="160" height="26" as="geometry" />
        </mxCell>
        <mxCell id="78961159f06e98e8-33" value="+ field: type" style="text;html=1;strokeColor=none;fillColor=none;align=left;verticalAlign=top;spacingLeft=4;spacingRight=4;whiteSpace=wrap;overflow=hidden;rotatable=0;points=[[0,0.5],[1,0.5]];portConstraint=eastwest;" parent="78961159f06e98e8-30" vertex="1">
          <mxGeometry y="78" width="160" height="26" as="geometry" />
        </mxCell>
        <mxCell id="78961159f06e98e8-34" value="+ field: type" style="text;html=1;strokeColor=none;fillColor=none;align=left;verticalAlign=top;spacingLeft=4;spacingRight=4;whiteSpace=wrap;overflow=hidden;rotatable=0;points=[[0,0.5],[1,0.5]];portConstraint=eastwest;" parent="78961159f06e98e8-30" vertex="1">
          <mxGeometry y="104" width="160" height="26" as="geometry" />
        </mxCell>
        <mxCell id="78961159f06e98e8-36" value="+ field: type" style="text;html=1;strokeColor=none;fillColor=none;align=left;verticalAlign=top;spacingLeft=4;spacingRight=4;whiteSpace=wrap;overflow=hidden;rotatable=0;points=[[0,0.5],[1,0.5]];portConstraint=eastwest;" parent="78961159f06e98e8-30" vertex="1">
          <mxGeometry y="130" width="160" height="26" as="geometry" />
        </mxCell>
        <mxCell id="78961159f06e98e8-37" value="+ field: type" style="text;html=1;strokeColor=none;fillColor=none;align=left;verticalAlign=top;spacingLeft=4;spacingRight=4;whiteSpace=wrap;overflow=hidden;rotatable=0;points=[[0,0.5],[1,0.5]];portConstraint=eastwest;" parent="78961159f06e98e8-30" vertex="1">
          <mxGeometry y="156" width="160" height="26" as="geometry" />
        </mxCell>
        <mxCell id="78961159f06e98e8-38" value="" style="line;html=1;strokeWidth=1;fillColor=none;align=left;verticalAlign=middle;spacingTop=-1;spacingLeft=3;spacingRight=3;rotatable=0;labelPosition=right;points=[];portConstraint=eastwest;" parent="78961159f06e98e8-30" vertex="1">
          <mxGeometry y="182" width="160" height="8" as="geometry" />
        </mxCell>
        <mxCell id="78961159f06e98e8-39" value="Địa điểm vui chơi:" style="text;html=1;strokeColor=none;fillColor=#CCFF99;align=left;verticalAlign=top;spacingLeft=4;spacingRight=4;whiteSpace=wrap;overflow=hidden;rotatable=0;points=[[0,0.5],[1,0.5]];portConstraint=eastwest;shadow=0;" parent="78961159f06e98e8-30" vertex="1">
          <mxGeometry y="190" width="160" height="26" as="geometry" />
        </mxCell>
        <mxCell id="JoN7KsLRaaK6xxKw_jyw-35" value="" style="edgeStyle=orthogonalEdgeStyle;rounded=0;orthogonalLoop=1;jettySize=auto;html=1;" parent="1" source="78961159f06e98e8-43" target="JoN7KsLRaaK6xxKw_jyw-28" edge="1">
          <mxGeometry relative="1" as="geometry" />
        </mxCell>
        <mxCell id="JoN7KsLRaaK6xxKw_jyw-37" value="" style="edgeStyle=orthogonalEdgeStyle;rounded=0;orthogonalLoop=1;jettySize=auto;html=1;entryX=0.5;entryY=0;entryDx=0;entryDy=0;" parent="1" source="78961159f06e98e8-43" target="JoN7KsLRaaK6xxKw_jyw-38" edge="1">
          <mxGeometry relative="1" as="geometry">
            <mxPoint x="1270" y="410" as="targetPoint" />
          </mxGeometry>
        </mxCell>
        <mxCell id="JoN7KsLRaaK6xxKw_jyw-66" value="" style="edgeStyle=orthogonalEdgeStyle;rounded=0;orthogonalLoop=1;jettySize=auto;html=1;" parent="1" source="78961159f06e98e8-43" target="JoN7KsLRaaK6xxKw_jyw-60" edge="1">
          <mxGeometry relative="1" as="geometry" />
        </mxCell>
        <mxCell id="78961159f06e98e8-43" value="Higashi Hiroshima" style="swimlane;html=1;fontStyle=1;align=center;verticalAlign=top;childLayout=stackLayout;horizontal=1;startSize=26;horizontalStack=0;resizeParent=1;resizeLast=0;collapsible=1;marginBottom=0;swimlaneFillColor=#ffffff;rounded=0;shadow=0;comic=0;labelBackgroundColor=none;strokeWidth=1;fillColor=none;fontFamily=Verdana;fontSize=12" parent="1" vertex="1">
          <mxGeometry x="1007" y="83" width="160" height="190" as="geometry" />
        </mxCell>
        <mxCell id="78961159f06e98e8-44" value="Giờ tới: Sáng 4/5" style="text;html=1;strokeColor=none;fillColor=none;align=left;verticalAlign=top;spacingLeft=4;spacingRight=4;whiteSpace=wrap;overflow=hidden;rotatable=0;points=[[0,0.5],[1,0.5]];portConstraint=eastwest;" parent="78961159f06e98e8-43" vertex="1">
          <mxGeometry y="26" width="160" height="26" as="geometry" />
        </mxCell>
        <mxCell id="78961159f06e98e8-45" value="Chơi nhà a Thịnh" style="text;html=1;strokeColor=none;fillColor=none;align=left;verticalAlign=top;spacingLeft=4;spacingRight=4;whiteSpace=wrap;overflow=hidden;rotatable=0;points=[[0,0.5],[1,0.5]];portConstraint=eastwest;" parent="78961159f06e98e8-43" vertex="1">
          <mxGeometry y="52" width="160" height="26" as="geometry" />
        </mxCell>
        <mxCell id="78961159f06e98e8-49" value="Các lịch trình khác ko có" style="text;html=1;strokeColor=none;fillColor=none;align=left;verticalAlign=top;spacingLeft=4;spacingRight=4;whiteSpace=wrap;overflow=hidden;rotatable=0;points=[[0,0.5],[1,0.5]];portConstraint=eastwest;" parent="78961159f06e98e8-43" vertex="1">
          <mxGeometry y="78" width="160" height="26" as="geometry" />
        </mxCell>
        <mxCell id="78961159f06e98e8-51" value="" style="line;html=1;strokeWidth=1;fillColor=none;align=left;verticalAlign=middle;spacingTop=-1;spacingLeft=3;spacingRight=3;rotatable=0;labelPosition=right;points=[];portConstraint=eastwest;" parent="78961159f06e98e8-43" vertex="1">
          <mxGeometry y="104" width="160" height="8" as="geometry" />
        </mxCell>
        <mxCell id="JoN7KsLRaaK6xxKw_jyw-26" value="Tối ngủ gần đó" style="text;html=1;strokeColor=none;fillColor=none;align=left;verticalAlign=top;spacingLeft=4;spacingRight=4;whiteSpace=wrap;overflow=hidden;rotatable=0;points=[[0,0.5],[1,0.5]];portConstraint=eastwest;" parent="78961159f06e98e8-43" vertex="1">
          <mxGeometry y="112" width="160" height="26" as="geometry" />
        </mxCell>
        <mxCell id="78961159f06e98e8-121" style="edgeStyle=elbowEdgeStyle;html=1;labelBackgroundColor=none;startFill=0;startSize=8;endArrow=diamondThin;endFill=0;endSize=16;fontFamily=Verdana;fontSize=12;elbow=vertical;shape=flexArrow;" parent="1" source="78961159f06e98e8-17" target="78961159f06e98e8-30" edge="1">
          <mxGeometry relative="1" as="geometry">
            <mxPoint x="250" y="259.88235294117635" as="sourcePoint" />
          </mxGeometry>
        </mxCell>
        <mxCell id="JoN7KsLRaaK6xxKw_jyw-5" value="Ban ngày" style="swimlane;html=1;fontStyle=1;align=center;verticalAlign=top;childLayout=stackLayout;horizontal=1;startSize=26;horizontalStack=0;resizeParent=1;resizeLast=0;collapsible=1;marginBottom=0;swimlaneFillColor=#ffffff;rounded=0;shadow=0;comic=0;labelBackgroundColor=none;strokeWidth=1;fillColor=none;fontFamily=Verdana;fontSize=12" parent="1" vertex="1">
          <mxGeometry x="360" y="380" width="160" height="227" as="geometry" />
        </mxCell>
        <mxCell id="JoN7KsLRaaK6xxKw_jyw-6" value="Giờ tới: Sáng ( trưa) 3/5&lt;div&gt;&lt;br&gt;&lt;/div&gt;" style="text;html=1;strokeColor=none;fillColor=none;align=left;verticalAlign=top;spacingLeft=4;spacingRight=4;whiteSpace=wrap;overflow=hidden;rotatable=0;points=[[0,0.5],[1,0.5]];portConstraint=eastwest;" parent="JoN7KsLRaaK6xxKw_jyw-5" vertex="1">
          <mxGeometry y="26" width="160" height="26" as="geometry" />
        </mxCell>
        <mxCell id="JoN7KsLRaaK6xxKw_jyw-7" value="Khách sạn:" style="text;html=1;strokeColor=none;fillColor=none;align=left;verticalAlign=top;spacingLeft=4;spacingRight=4;whiteSpace=wrap;overflow=hidden;rotatable=0;points=[[0,0.5],[1,0.5]];portConstraint=eastwest;" parent="JoN7KsLRaaK6xxKw_jyw-5" vertex="1">
          <mxGeometry y="52" width="160" height="26" as="geometry" />
        </mxCell>
        <mxCell id="JoN7KsLRaaK6xxKw_jyw-8" value="+ field: type" style="text;html=1;strokeColor=none;fillColor=none;align=left;verticalAlign=top;spacingLeft=4;spacingRight=4;whiteSpace=wrap;overflow=hidden;rotatable=0;points=[[0,0.5],[1,0.5]];portConstraint=eastwest;" parent="JoN7KsLRaaK6xxKw_jyw-5" vertex="1">
          <mxGeometry y="78" width="160" height="26" as="geometry" />
        </mxCell>
        <mxCell id="JoN7KsLRaaK6xxKw_jyw-9" value="+ field: type" style="text;html=1;strokeColor=none;fillColor=none;align=left;verticalAlign=top;spacingLeft=4;spacingRight=4;whiteSpace=wrap;overflow=hidden;rotatable=0;points=[[0,0.5],[1,0.5]];portConstraint=eastwest;" parent="JoN7KsLRaaK6xxKw_jyw-5" vertex="1">
          <mxGeometry y="104" width="160" height="26" as="geometry" />
        </mxCell>
        <mxCell id="JoN7KsLRaaK6xxKw_jyw-10" value="+ field: type" style="text;html=1;strokeColor=none;fillColor=none;align=left;verticalAlign=top;spacingLeft=4;spacingRight=4;whiteSpace=wrap;overflow=hidden;rotatable=0;points=[[0,0.5],[1,0.5]];portConstraint=eastwest;" parent="JoN7KsLRaaK6xxKw_jyw-5" vertex="1">
          <mxGeometry y="130" width="160" height="26" as="geometry" />
        </mxCell>
        <mxCell id="JoN7KsLRaaK6xxKw_jyw-11" value="+ field: type" style="text;html=1;strokeColor=none;fillColor=none;align=left;verticalAlign=top;spacingLeft=4;spacingRight=4;whiteSpace=wrap;overflow=hidden;rotatable=0;points=[[0,0.5],[1,0.5]];portConstraint=eastwest;" parent="JoN7KsLRaaK6xxKw_jyw-5" vertex="1">
          <mxGeometry y="156" width="160" height="26" as="geometry" />
        </mxCell>
        <mxCell id="JoN7KsLRaaK6xxKw_jyw-12" value="" style="line;html=1;strokeWidth=1;fillColor=none;align=left;verticalAlign=middle;spacingTop=-1;spacingLeft=3;spacingRight=3;rotatable=0;labelPosition=right;points=[];portConstraint=eastwest;" parent="JoN7KsLRaaK6xxKw_jyw-5" vertex="1">
          <mxGeometry y="182" width="160" height="8" as="geometry" />
        </mxCell>
        <mxCell id="JoN7KsLRaaK6xxKw_jyw-13" value="Địa điểm vui chơi:" style="text;html=1;strokeColor=none;fillColor=#CCFF99;align=left;verticalAlign=top;spacingLeft=4;spacingRight=4;whiteSpace=wrap;overflow=hidden;rotatable=0;points=[[0,0.5],[1,0.5]];portConstraint=eastwest;shadow=0;" parent="JoN7KsLRaaK6xxKw_jyw-5" vertex="1">
          <mxGeometry y="190" width="160" height="26" as="geometry" />
        </mxCell>
        <mxCell id="JoN7KsLRaaK6xxKw_jyw-15" value="Đêm" style="swimlane;html=1;fontStyle=1;align=center;verticalAlign=top;childLayout=stackLayout;horizontal=1;startSize=26;horizontalStack=0;resizeParent=1;resizeLast=0;collapsible=1;marginBottom=0;swimlaneFillColor=#ffffff;rounded=0;shadow=0;comic=0;labelBackgroundColor=none;strokeWidth=1;fillColor=none;fontFamily=Verdana;fontSize=12" parent="1" vertex="1">
          <mxGeometry x="510" y="380" width="160" height="227" as="geometry" />
        </mxCell>
        <mxCell id="JoN7KsLRaaK6xxKw_jyw-16" value="&lt;div&gt;Đi loanh quanh khách sạn, ăn uống gần đó&lt;/div&gt;" style="text;html=1;strokeColor=none;fillColor=none;align=left;verticalAlign=top;spacingLeft=4;spacingRight=4;whiteSpace=wrap;overflow=hidden;rotatable=0;points=[[0,0.5],[1,0.5]];portConstraint=eastwest;" parent="JoN7KsLRaaK6xxKw_jyw-15" vertex="1">
          <mxGeometry y="26" width="160" height="94" as="geometry" />
        </mxCell>
        <mxCell id="JoN7KsLRaaK6xxKw_jyw-28" value="Khách sạn" style="swimlane;html=1;fontStyle=1;align=center;verticalAlign=top;childLayout=stackLayout;horizontal=1;startSize=26;horizontalStack=0;resizeParent=1;resizeLast=0;collapsible=1;marginBottom=0;swimlaneFillColor=#ffffff;rounded=0;shadow=0;comic=0;labelBackgroundColor=none;strokeWidth=1;fillColor=none;fontFamily=Verdana;fontSize=12" parent="1" vertex="1">
          <mxGeometry x="930" y="380" width="160" height="190" as="geometry" />
        </mxCell>
        <mxCell id="JoN7KsLRaaK6xxKw_jyw-29" value="3.&amp;nbsp;&lt;span style=&quot;background-color: light-dark(rgb(255, 255, 255), rgb(18, 18, 18)); color: light-dark(rgb(51, 51, 51), rgb(193, 193, 193));&quot;&gt;Hotel Route Inn Higashi Hiroshima Saijo Ekimae&lt;/span&gt;&lt;div&gt;&lt;span style=&quot;background-color: rgb(255, 255, 255); color: rgb(31, 31, 31);&quot;&gt;&lt;font&gt;&lt;br&gt;&lt;/font&gt;&lt;/span&gt;&lt;/div&gt;&lt;div&gt;&lt;span style=&quot;background-color: rgb(255, 255, 255); color: rgb(31, 31, 31);&quot;&gt;&lt;font&gt;14-24 Saijohonmachi, Higashihiroshima, Hiroshima 739-0011&lt;/font&gt;&lt;/span&gt;&lt;/div&gt;" style="text;html=1;strokeColor=none;fillColor=none;align=left;verticalAlign=top;spacingLeft=4;spacingRight=4;whiteSpace=wrap;overflow=hidden;rotatable=0;points=[[0,0.5],[1,0.5]];portConstraint=eastwest;" parent="JoN7KsLRaaK6xxKw_jyw-28" vertex="1">
          <mxGeometry y="26" width="160" height="104" as="geometry" />
        </mxCell>
        <mxCell id="JoN7KsLRaaK6xxKw_jyw-33" value="" style="line;html=1;strokeWidth=1;fillColor=none;align=left;verticalAlign=middle;spacingTop=-1;spacingLeft=3;spacingRight=3;rotatable=0;labelPosition=right;points=[];portConstraint=eastwest;" parent="JoN7KsLRaaK6xxKw_jyw-28" vertex="1">
          <mxGeometry y="130" width="160" height="8" as="geometry" />
        </mxCell>
        <mxCell id="JoN7KsLRaaK6xxKw_jyw-38" value="Trong xe oto" style="swimlane;html=1;fontStyle=1;align=center;verticalAlign=top;childLayout=stackLayout;horizontal=1;startSize=26;horizontalStack=0;resizeParent=1;resizeLast=0;collapsible=1;marginBottom=0;swimlaneFillColor=#ffffff;rounded=0;shadow=0;comic=0;labelBackgroundColor=none;strokeWidth=1;fillColor=none;fontFamily=Verdana;fontSize=12" parent="1" vertex="1">
          <mxGeometry x="1100" y="380" width="160" height="340" as="geometry" />
        </mxCell>
        <mxCell id="JoN7KsLRaaK6xxKw_jyw-39" value="&lt;font face=&quot;Helvetica&quot;&gt;1.&amp;nbsp;&lt;span style=&quot;background-color: light-dark(rgb(255, 255, 255), rgb(18, 18, 18)); color: light-dark(rgb(31, 31, 31), rgb(210, 210, 210));&quot;&gt;Lawson Higashi-Hiroshima Science Park east&lt;/span&gt;&lt;/font&gt;&lt;div&gt;&lt;font face=&quot;Helvetica&quot;&gt;&lt;span style=&quot;background-color: light-dark(rgb(255, 255, 255), rgb(18, 18, 18));&quot;&gt;&lt;font color=&quot;#1f1f1f&quot;&gt;&lt;br&gt;&lt;/font&gt;&lt;/span&gt;&lt;/font&gt;&lt;/div&gt;&lt;div&gt;&lt;font face=&quot;Helvetica&quot;&gt;&lt;span style=&quot;background-color: light-dark(rgb(255, 255, 255), rgb(18, 18, 18));&quot;&gt;&lt;font color=&quot;#1f1f1f&quot;&gt;3267-1 Saijocho Misonou, Higashihiroshima, Hiroshima 739-0024&lt;/font&gt;&lt;/span&gt;&lt;/font&gt;&lt;/div&gt;" style="text;html=1;strokeColor=none;fillColor=none;align=left;verticalAlign=top;spacingLeft=4;spacingRight=4;whiteSpace=wrap;overflow=hidden;rotatable=0;points=[[0,0.5],[1,0.5]];portConstraint=eastwest;" parent="JoN7KsLRaaK6xxKw_jyw-38" vertex="1">
          <mxGeometry y="26" width="160" height="104" as="geometry" />
        </mxCell>
        <mxCell id="JoN7KsLRaaK6xxKw_jyw-43" value="" style="line;html=1;strokeWidth=1;fillColor=none;align=left;verticalAlign=middle;spacingTop=-1;spacingLeft=3;spacingRight=3;rotatable=0;labelPosition=right;points=[];portConstraint=eastwest;" parent="JoN7KsLRaaK6xxKw_jyw-38" vertex="1">
          <mxGeometry y="130" width="160" height="8" as="geometry" />
        </mxCell>
        <mxCell id="JoN7KsLRaaK6xxKw_jyw-44" value="&lt;font&gt;2.&amp;nbsp;&lt;/font&gt;&lt;span style=&quot;background-color: rgb(255, 255, 255); color: rgb(31, 31, 31); font-family: &amp;quot;Google Sans&amp;quot;, Roboto, Arial, sans-serif;&quot;&gt;Halows Higashi-Hiroshima Store&lt;/span&gt;&lt;div&gt;&lt;span style=&quot;background-color: rgb(255, 255, 255); color: rgb(31, 31, 31);&quot;&gt;&lt;font face=&quot;Google Sans, Roboto, Arial, sans-serif&quot; color=&quot;#1f1f1f&quot;&gt;&lt;br&gt;&lt;/font&gt;&lt;/span&gt;&lt;/div&gt;&lt;div&gt;&lt;span style=&quot;background-color: rgb(255, 255, 255); color: rgb(31, 31, 31);&quot;&gt;&lt;font face=&quot;Google Sans, Roboto, Arial, sans-serif&quot; color=&quot;#1f1f1f&quot;&gt;28-30 Saijonishihonmachi, Higashihiroshima, Hiroshima 739-0043&lt;/font&gt;&lt;/span&gt;&lt;/div&gt;" style="text;html=1;strokeColor=none;fillColor=none;align=left;verticalAlign=top;spacingLeft=4;spacingRight=4;whiteSpace=wrap;overflow=hidden;rotatable=0;points=[[0,0.5],[1,0.5]];portConstraint=eastwest;" parent="JoN7KsLRaaK6xxKw_jyw-38" vertex="1">
          <mxGeometry y="138" width="160" height="92" as="geometry" />
        </mxCell>
        <mxCell id="JoN7KsLRaaK6xxKw_jyw-58" value="" style="line;html=1;strokeWidth=1;fillColor=none;align=left;verticalAlign=middle;spacingTop=-1;spacingLeft=3;spacingRight=3;rotatable=0;labelPosition=right;points=[];portConstraint=eastwest;" parent="JoN7KsLRaaK6xxKw_jyw-38" vertex="1">
          <mxGeometry y="230" width="160" height="8" as="geometry" />
        </mxCell>
        <mxCell id="JoN7KsLRaaK6xxKw_jyw-57" value="&lt;div style=&quot;line-height: 100%;&quot;&gt;&lt;font&gt;3.&amp;nbsp;&lt;/font&gt;&lt;span style=&quot;background-color: light-dark(rgb(255, 255, 255), rgb(18, 18, 18)); color: light-dark(rgb(51, 51, 51), rgb(193, 193, 193));&quot;&gt;Hotel Route Inn Higashi Hiroshima Saijo Ekimae&lt;/span&gt;&lt;div&gt;&lt;span style=&quot;background-color: rgb(255, 255, 255); color: rgb(31, 31, 31);&quot;&gt;&lt;font color=&quot;#1f1f1f&quot;&gt;&lt;br&gt;&lt;/font&gt;&lt;/span&gt;&lt;/div&gt;&lt;div&gt;&lt;span style=&quot;background-color: rgb(255, 255, 255); color: rgb(31, 31, 31);&quot;&gt;&lt;font color=&quot;#1f1f1f&quot;&gt;14-24 Saijohonmachi, Higashihiroshima, Hiroshima 739-0011&lt;/font&gt;&lt;/span&gt;&lt;/div&gt;&lt;/div&gt;" style="text;html=1;strokeColor=none;fillColor=none;align=left;verticalAlign=top;spacingLeft=4;spacingRight=4;whiteSpace=wrap;overflow=hidden;rotatable=0;points=[[0,0.5],[1,0.5]];portConstraint=eastwest;" parent="JoN7KsLRaaK6xxKw_jyw-38" vertex="1">
          <mxGeometry y="238" width="160" height="102" as="geometry" />
        </mxCell>
        <mxCell id="JoN7KsLRaaK6xxKw_jyw-60" value="Higashi Hiroshima" style="swimlane;html=1;fontStyle=1;align=center;verticalAlign=top;childLayout=stackLayout;horizontal=1;startSize=26;horizontalStack=0;resizeParent=1;resizeLast=0;collapsible=1;marginBottom=0;swimlaneFillColor=#ffffff;rounded=0;shadow=0;comic=0;labelBackgroundColor=none;strokeWidth=1;fillColor=none;fontFamily=Verdana;fontSize=12" parent="1" vertex="1">
          <mxGeometry x="1247" y="83" width="160" height="190" as="geometry" />
        </mxCell>
        <mxCell id="JoN7KsLRaaK6xxKw_jyw-61" value="Giờ tới: Sáng 4/5" style="text;html=1;strokeColor=none;fillColor=none;align=left;verticalAlign=top;spacingLeft=4;spacingRight=4;whiteSpace=wrap;overflow=hidden;rotatable=0;points=[[0,0.5],[1,0.5]];portConstraint=eastwest;" parent="JoN7KsLRaaK6xxKw_jyw-60" vertex="1">
          <mxGeometry y="26" width="160" height="26" as="geometry" />
        </mxCell>
        <mxCell id="JoN7KsLRaaK6xxKw_jyw-62" value="Chơi nhà a Thịnh" style="text;html=1;strokeColor=none;fillColor=none;align=left;verticalAlign=top;spacingLeft=4;spacingRight=4;whiteSpace=wrap;overflow=hidden;rotatable=0;points=[[0,0.5],[1,0.5]];portConstraint=eastwest;" parent="JoN7KsLRaaK6xxKw_jyw-60" vertex="1">
          <mxGeometry y="52" width="160" height="26" as="geometry" />
        </mxCell>
        <mxCell id="JoN7KsLRaaK6xxKw_jyw-63" value="Các lịch trình khác ko có" style="text;html=1;strokeColor=none;fillColor=none;align=left;verticalAlign=top;spacingLeft=4;spacingRight=4;whiteSpace=wrap;overflow=hidden;rotatable=0;points=[[0,0.5],[1,0.5]];portConstraint=eastwest;" parent="JoN7KsLRaaK6xxKw_jyw-60" vertex="1">
          <mxGeometry y="78" width="160" height="26" as="geometry" />
        </mxCell>
        <mxCell id="JoN7KsLRaaK6xxKw_jyw-64" value="" style="line;html=1;strokeWidth=1;fillColor=none;align=left;verticalAlign=middle;spacingTop=-1;spacingLeft=3;spacingRight=3;rotatable=0;labelPosition=right;points=[];portConstraint=eastwest;" parent="JoN7KsLRaaK6xxKw_jyw-60" vertex="1">
          <mxGeometry y="104" width="160" height="8" as="geometry" />
        </mxCell>
        <mxCell id="JoN7KsLRaaK6xxKw_jyw-65" value="Tối ngủ gần đó" style="text;html=1;strokeColor=none;fillColor=none;align=left;verticalAlign=top;spacingLeft=4;spacingRight=4;whiteSpace=wrap;overflow=hidden;rotatable=0;points=[[0,0.5],[1,0.5]];portConstraint=eastwest;" parent="JoN7KsLRaaK6xxKw_jyw-60" vertex="1">
          <mxGeometry y="112" width="160" height="26" as="geometry" />
        </mxCell>
        <UserObject label="Map" link="https://www.google.co.jp/maps/dir/%E3%80%92812-0008+Fukuoka,+Hakata+Ward,+T%C5%8Dk%C5%8D,+2-ch%C5%8Dme%E2%88%9222%E2%88%9239+%E5%BE%A1%E9%A6%AC%E6%89%80%E3%83%93%E3%83%AB/HIROSHIMA+STATION+%E5%BA%83%E5%B3%B6/Hotel+Route+Inn+East+Hiroshima+Saijo+Station+%E3%83%9B%E3%83%86%E3%83%AB%E3%83%AB%E3%83%BC%E3%83%88%E3%82%A4%E3%83%B3+%E6%9D%B1%E5%BA%83%E5%B3%B6%E8%A5%BF%E6%9D%A1%E9%A7%85%E5%89%8D/Oumijima+Diving+Center+%E9%9D%92%E6%B5%B7%E5%B3%B6+%E3%83%80%E3%82%A4%E3%83%93%E3%83%B3%E3%82%B0+%E3%82%BB%E3%83%B3%E3%82%BF%E3%83%BC/%E5%BE%A1%E9%A6%AC%E6%89%80%E3%83%93%E3%83%AB/@34.0770087,131.1573063,145220m/data=!3m1!1e3!4m32!4m31!1m5!1m1!1s0x354191d2a6c049c5:0x7c4fa539d3bd2cab!2m2!1d130.4304027!2d33.5948801!1m5!1m1!1s0x355a9f53bc20533b:0x28413f32450be7eb!2m2!1d132.4753786!2d34.397667!1m5!1m1!1s0x3550657903e41fe7:0x4afb68fbb75b8549!2m2!1d132.7439502!2d34.4295833!1m5!1m1!1s0x354359516ecc8c03:0xa2a4b7e6647dea8e!2m2!1d131.223889!2d34.426685!1m5!1m1!1s0x354191d2a6c049c5:0x7c4fa539d3bd2cab!2m2!1d130.4304027!2d33.5948801!3e0?authuser=0&amp;hl=en&amp;entry=ttu&amp;g_ep=EgoyMDI1MDQyMy4wIKXMDSoASAFQAw%3D%3D" id="JoN7KsLRaaK6xxKw_jyw-71">
          <mxCell style="text;html=1;align=center;verticalAlign=middle;whiteSpace=wrap;rounded=0;fillColor=#67AB9F;strokeColor=default;glass=0;shadow=0;textShadow=0;direction=west;fontSize=8;" parent="1" vertex="1">
            <mxGeometry x="145.5" y="310" width="49" height="30" as="geometry" />
          </mxCell>
        </UserObject>
        <UserObject label="Map" link="https://www.google.co.jp/maps/place/Lawson+Higashi-Hiroshima+Science+Park+east/@34.4014689,132.7427932,339m/data=!3m1!1e3!4m10!3m9!1s0x35506f1c0d09229d:0xc10e0d8745e64bb7!5m3!1s2025-05-04!4m1!1i2!8m2!3d34.401419!4d132.743292!16s%2Fg%2F11gn28lrq2?authuser=0&amp;hl=en&amp;entry=ttu&amp;g_ep=EgoyMDI1MDQyMy4wIKXMDSoASAFQAw%3D%3D" id="JoN7KsLRaaK6xxKw_jyw-78">
          <mxCell style="rounded=0;whiteSpace=wrap;html=1;fillColor=#67AB9F;" parent="1" vertex="1">
            <mxGeometry x="1310" y="441" width="70" height="34" as="geometry" />
          </mxCell>
        </UserObject>
        <mxCell id="JoN7KsLRaaK6xxKw_jyw-80" style="edgeStyle=orthogonalEdgeStyle;rounded=0;orthogonalLoop=1;jettySize=auto;html=1;exitX=1;exitY=0.5;exitDx=0;exitDy=0;entryX=0;entryY=0.5;entryDx=0;entryDy=0;" parent="1" source="JoN7KsLRaaK6xxKw_jyw-39" target="JoN7KsLRaaK6xxKw_jyw-78" edge="1">
          <mxGeometry relative="1" as="geometry" />
        </mxCell>
        <UserObject label="Map" link="https://www.google.co.jp/maps/place/Halows+Higashi-Hiroshima+Store/@34.426465,132.7393941,339m/data=!3m1!1e3!4m10!3m9!1s0x3550657db27ad2bb:0x9a1aecfbfb4fa3d9!5m3!1s2025-05-04!4m1!1i2!8m2!3d34.4270475!4d132.7398436!16s%2Fg%2F11f1l35j75?authuser=0&amp;hl=en&amp;entry=ttu&amp;g_ep=EgoyMDI1MDQyMy4wIKXMDSoASAFQAw%3D%3D" id="JoN7KsLRaaK6xxKw_jyw-83">
          <mxCell style="rounded=0;whiteSpace=wrap;html=1;fillColor=#67AB9F;" parent="1" vertex="1">
            <mxGeometry x="1310" y="547" width="70" height="34" as="geometry" />
          </mxCell>
        </UserObject>
        <mxCell id="JoN7KsLRaaK6xxKw_jyw-84" style="edgeStyle=orthogonalEdgeStyle;rounded=0;orthogonalLoop=1;jettySize=auto;html=1;exitX=1;exitY=0.5;exitDx=0;exitDy=0;entryX=0;entryY=0.5;entryDx=0;entryDy=0;" parent="1" source="JoN7KsLRaaK6xxKw_jyw-44" target="JoN7KsLRaaK6xxKw_jyw-83" edge="1">
          <mxGeometry relative="1" as="geometry" />
        </mxCell>
        <UserObject label="Map" link="https://www.google.co.jp/maps/place/Hotel+Route+Inn+East+Hiroshima+Saijo+Station/@34.4292652,132.7434378,266m/data=!3m1!1e3!4m10!3m9!1s0x3550657903e41fe7:0x4afb68fbb75b8549!5m3!1s2025-05-04!4m1!1i2!8m2!3d34.4295833!4d132.7439502!16s%2Fg%2F11dxdn3zh0?authuser=0&amp;hl=en&amp;entry=ttu&amp;g_ep=EgoyMDI1MDQyMy4wIKXMDSoASAFQAw%3D%3D" id="JoN7KsLRaaK6xxKw_jyw-85">
          <mxCell style="rounded=0;whiteSpace=wrap;html=1;fillColor=#67AB9F;" parent="1" vertex="1">
            <mxGeometry x="810" y="410" width="70" height="34" as="geometry" />
          </mxCell>
        </UserObject>
        <mxCell id="JoN7KsLRaaK6xxKw_jyw-86" style="edgeStyle=orthogonalEdgeStyle;rounded=0;orthogonalLoop=1;jettySize=auto;html=1;exitX=0;exitY=0.5;exitDx=0;exitDy=0;entryX=1;entryY=0.5;entryDx=0;entryDy=0;" parent="1" source="JoN7KsLRaaK6xxKw_jyw-29" target="JoN7KsLRaaK6xxKw_jyw-85" edge="1">
          <mxGeometry relative="1" as="geometry" />
        </mxCell>
        <UserObject label="Web" link="https://halalbooking.com/en/p/283077?checkin=2025-05-04&amp;checkout=2025-05-05&amp;groups[]=2%2C1&amp;remember_search_params=true" id="JoN7KsLRaaK6xxKw_jyw-87">
          <mxCell style="ellipse;whiteSpace=wrap;html=1;aspect=fixed;fillColor=#CDA2BE;" parent="1" vertex="1">
            <mxGeometry x="840" y="475" width="40" height="40" as="geometry" />
          </mxCell>
        </UserObject>
        <mxCell id="JoN7KsLRaaK6xxKw_jyw-88" style="edgeStyle=orthogonalEdgeStyle;rounded=0;orthogonalLoop=1;jettySize=auto;html=1;exitX=0;exitY=0.5;exitDx=0;exitDy=0;entryX=1;entryY=0.5;entryDx=0;entryDy=0;" parent="1" source="JoN7KsLRaaK6xxKw_jyw-29" target="JoN7KsLRaaK6xxKw_jyw-87" edge="1">
          <mxGeometry relative="1" as="geometry" />
        </mxCell>
      </root>
    </mxGraphModel>
  </diagram>
</mxfile>
